<?xml version="1.0" encoding="UTF-8" standalone="no"?>
<!-- Uploaded to: SVG Repo, www.svgrepo.com, Transformed by: SVG Repo Mixer Tools -->

<svg
   height="141.71025"
   width="251.37587"
   version="1.1"
   id="Layer_1"
   viewBox="-56.32 -56.32 1033.0225 582.35455"
   xml:space="preserve"
   fill="#000000"
   sodipodi:docname="logo-obrazilii-07.svg"
   inkscape:version="1.1.1 (3bf5ae0d25, 2021-09-20)"
   xmlns:inkscape="http://www.inkscape.org/namespaces/inkscape"
   xmlns:sodipodi="http://sodipodi.sourceforge.net/DTD/sodipodi-0.dtd"
   xmlns="http://www.w3.org/2000/svg"
   xmlns:svg="http://www.w3.org/2000/svg"><defs
   id="defs71" /><sodipodi:namedview
   id="namedview69"
   pagecolor="#ffffff"
   bordercolor="#666666"
   borderopacity="1.0"
   inkscape:pageshadow="2"
   inkscape:pageopacity="0.0"
   inkscape:pagecheckerboard="0"
   showgrid="false"
   showguides="true"
   inkscape:guide-bbox="true"
   inkscape:zoom="3.5029698"
   inkscape:cx="128.31969"
   inkscape:cy="97.488708"
   inkscape:window-width="1920"
   inkscape:window-height="1031"
   inkscape:window-x="0"
   inkscape:window-y="0"
   inkscape:window-maximized="1"
   inkscape:current-layer="Layer_1"><sodipodi:guide
     position="367.95879,1.4991098"
     orientation="0,-1"
     id="guide6397" /><sodipodi:guide
     position="377.16447,9.5689838"
     orientation="0,-1"
     id="guide295" /></sodipodi:namedview>

<g
   id="SVGRepo_bgCarrier"
   stroke-width="0"
   transform="translate(-22.015999,-22.015999)" />





<text
   xml:space="preserve"
   style="font-style:normal;font-variant:normal;font-weight:bold;font-stretch:normal;font-size:160.911px;line-height:1.25;font-family:Quicksand;-inkscape-font-specification:'Quicksand, Bold';font-variant-ligatures:normal;font-variant-caps:normal;font-variant-numeric:normal;font-variant-east-asian:normal;fill:#000000;fill-opacity:1;stroke:none;stroke-width:4.02277"
   x="452.25952"
   y="461.19449"
   id="text1299"><tspan
     sodipodi:role="line"
     id="tspan1297"
     style="font-style:normal;font-variant:normal;font-weight:bold;font-stretch:normal;font-size:160.911px;font-family:Quicksand;-inkscape-font-specification:'Quicksand, Bold';font-variant-ligatures:normal;font-variant-caps:normal;font-variant-numeric:normal;font-variant-east-asian:normal;stroke-width:4.02277"
     x="452.25952"
     y="461.19449">Brazilii</tspan></text><g
   style="fill:#000000"
   id="g133"
   transform="matrix(7.469987,0,0,7.469987,-23.276042,-30.735003)"><g
     id="SVGRepo_bgCarrier-4"
     stroke-width="0" /><g
     id="SVGRepo_tracerCarrier-4"
     stroke-linecap="round"
     stroke-linejoin="round"
     stroke="#000000"
     stroke-width="7.936"><g
       fill="#22bf00"
       id="g24"><path
         d="M 61.5,26.8 C 59.1,12.7 46.8,2 32,2 17.2,2 4.9,12.7 2.5,26.8 L 32,12 Z"
         id="path20" /><path
         d="M 2.5,37.2 C 4.9,51.3 17.2,62 32,62 46.8,62 59.1,51.3 61.5,37.2 L 32,52 Z"
         id="path22" /></g><path
       d="M 32,12 2.5,26.8 C 2.2,28.5 2,30.2 2,32 c 0,1.8 0.2,3.5 0.5,5.2 L 32,52 61.5,37.2 C 61.8,35.5 62,33.8 62,32 62,30.2 61.8,28.5 61.5,26.8 L 32,12"
       fill="#ffe62e"
       id="path26" /><g
       fill="#428bc1"
       id="g32"><path
         d="m 26,28.4 c -3.2,0 -6.2,0.7 -8.9,1.9 C 17,30.9 17,31.4 17,32 c 0,8.3 6.7,15 15,15 5.6,0 10.5,-3.1 13.1,-7.6 -3.7,-6.5 -10.9,-11 -19.1,-11"
         id="path28" /><path
         d="M 46.8,34.4 C 46.9,33.6 47,32.8 47,32 47,23.7 40.3,17 32,17 c -5.9,0 -11,3.4 -13.5,8.4 2.4,-0.7 4.9,-1.1 7.5,-1.1 8.5,0 16,4 20.8,10.1"
         id="path30" /></g><g
       fill="#ffffff"
       id="g52"><path
         d="m 26,24.3 c -2.6,0 -5.1,0.4 -7.5,1.1 -0.7,1.5 -1.2,3.1 -1.4,4.9 2.7,-1.2 5.7,-1.9 8.9,-1.9 8.2,0 15.4,4.4 19.1,10.9 0.9,-1.5 1.4,-3.2 1.7,-4.9 C 42,28.3 34.5,24.3 26,24.3"
         id="path34" /><circle
         cx="22"
         cy="32"
         r="1"
         id="circle36" /><circle
         cx="26"
         cy="38"
         r="1"
         id="circle38" /><circle
         cx="32"
         cy="38"
         r="1"
         id="circle40" /><circle
         cx="32"
         cy="42"
         r="1"
         id="circle42" /><circle
         cx="40"
         cy="38"
         r="1"
         id="circle44" /><circle
         cx="40"
         cy="42"
         r="1"
         id="circle46" /><circle
         cx="36"
         cy="40"
         r="1"
         id="circle48" /><circle
         cx="22"
         cy="36"
         r="1"
         id="circle50-4" /></g></g><g
     id="SVGRepo_iconCarrier-4"><g
       fill="#22bf00"
       id="g59"><path
         d="M 61.5,26.8 C 59.1,12.7 46.8,2 32,2 17.2,2 4.9,12.7 2.5,26.8 L 32,12 Z"
         id="path55" /><path
         d="M 2.5,37.2 C 4.9,51.3 17.2,62 32,62 46.8,62 59.1,51.3 61.5,37.2 L 32,52 Z"
         id="path57" /></g><path
       d="M 32,12 2.5,26.8 C 2.2,28.5 2,30.2 2,32 c 0,1.8 0.2,3.5 0.5,5.2 L 32,52 61.5,37.2 C 61.8,35.5 62,33.8 62,32 62,30.2 61.8,28.5 61.5,26.8 L 32,12"
       fill="#ffe62e"
       id="path61-7" /><g
       fill="#428bc1"
       id="g67"><path
         d="m 26,28.4 c -3.2,0 -6.2,0.7 -8.9,1.9 C 17,30.9 17,31.4 17,32 c 0,8.3 6.7,15 15,15 5.6,0 10.5,-3.1 13.1,-7.6 -3.7,-6.5 -10.9,-11 -19.1,-11"
         id="path63" /><path
         d="M 46.8,34.4 C 46.9,33.6 47,32.8 47,32 47,23.7 40.3,17 32,17 c -5.9,0 -11,3.4 -13.5,8.4 2.4,-0.7 4.9,-1.1 7.5,-1.1 8.5,0 16,4 20.8,10.1"
         id="path65-6" /></g><g
       fill="#ffffff"
       id="g87"><path
         d="m 26,24.3 c -2.6,0 -5.1,0.4 -7.5,1.1 -0.7,1.5 -1.2,3.1 -1.4,4.9 2.7,-1.2 5.7,-1.9 8.9,-1.9 8.2,0 15.4,4.4 19.1,10.9 0.9,-1.5 1.4,-3.2 1.7,-4.9 C 42,28.3 34.5,24.3 26,24.3"
         id="path69" /><circle
         cx="22"
         cy="32"
         r="1"
         id="circle71" /><circle
         cx="26"
         cy="38"
         r="1"
         id="circle73" /><circle
         cx="32"
         cy="38"
         r="1"
         id="circle75" /><circle
         cx="32"
         cy="42"
         r="1"
         id="circle77" /><circle
         cx="40"
         cy="38"
         r="1"
         id="circle79" /><circle
         cx="40"
         cy="42"
         r="1"
         id="circle81" /><circle
         cx="36"
         cy="40"
         r="1"
         id="circle83" /><circle
         cx="22"
         cy="36"
         r="1"
         id="circle85" /></g></g></g></svg>
